<svg width="59" height="49" viewBox="0 0 59 49" fill="none" xmlns="http://www.w3.org/2000/svg">
<g clip-path="url(#clip0)">
<path d="M21.952 1.34848C20.972 -0.415518 18.424 -0.415518 17.444 1.34848L0.58803 31.9245C-0.19401 33.4925 0.98003 35.2565 2.74599 35.2565H14.114V46.8205C14.114 47.9965 15.094 48.9765 16.27 48.9765H22.934C24.11 48.9765 25.09 47.9965 25.09 46.8205V35.2565H21.954C20.582 35.2565 19.602 34.2765 19.406 33.1005C19.406 32.7085 19.406 32.3165 19.602 31.9225L29.01 14.8705L21.952 1.34848Z" fill="#39E09B"/>
<path d="M36.8481 1.34848C37.8281 -0.415518 40.3761 -0.415518 41.3561 1.34848L58.214 31.9245C58.9961 33.4925 57.822 35.2565 56.0561 35.2565H44.8841V46.8205C44.8841 47.9965 43.9041 48.9765 42.7261 48.9765H35.6701C34.4922 48.9765 33.5122 47.9965 33.5122 46.8205V35.2565H36.6521C38.0241 35.2565 39.0041 34.2765 39.2001 33.1005C39.2001 32.7085 39.2001 32.3165 39.0041 31.9225L29.5941 14.8705L36.8481 1.34848Z" fill="#28BF7B"/>
</g>
<defs>
<clipPath id="clip0">
<rect width="58.8" height="49" fill="white"/>
</clipPath>
</defs>
</svg>
